<svg width="190" height="94" viewBox="0 0 190 94" fill="none" xmlns="http://www.w3.org/2000/svg">
<rect width="190" height="94" fill="#1E1E1E"/>
<g id="Frame 1" clip-path="url(#clip0_0_1)">
<rect width="1024" height="2371" transform="translate(-47 -29)" fill="#CAD2D4"/>
<g id="Frame 3" filter="url(#filter0_d_0_1)">
<rect width="1035" height="151" transform="translate(-47 -29)" fill="#000317"/>
<g id="logo-minha 1">
<g id="Group">
<path id="Vector" d="M2.38555 2.79458C2.44889 3.0698 4.18 11.3054 6.24889 21.1076L10.0067 38.9549H14.2922H18.5567L18.7678 38.1504C18.8944 37.727 20.7522 29.6396 22.9056 20.2185C25.0589 10.7761 26.8744 2.90043 26.9378 2.68872C27.0433 2.34998 26.79 2.32881 23.8133 2.32881H20.5833L18.9367 10.8396C14.7778 32.4766 14.9678 31.545 14.5456 31.545C14.3133 31.545 14.1444 31.4392 14.1444 31.3333C14.1444 31.2063 13.0467 24.7067 11.7167 16.8522C10.3867 8.99773 9.28889 2.51935 9.28889 2.45584C9.28889 2.39233 7.70555 2.32881 5.78444 2.32881H2.28L2.38555 2.79458Z" fill="#28CAB8"/>
<path id="Vector_2" d="M36.5222 9.52701V11.8558H40.0056H43.4889V9.52701V7.19818H40.0056H36.5222V9.52701Z" fill="#28CAB8"/>
<path id="Vector_3" d="M82.5444 9.52701V11.8558H86.0278H89.5111V9.52701V7.19818H86.0278H82.5444V9.52701Z" fill="#28CAB8"/>
<path id="Vector_4" d="M128.567 9.52701V11.8558H132.05H135.533V9.52701V7.19818H132.05H128.567V9.52701Z" fill="#28CAB8"/>
<path id="Vector_5" d="M30.4 16.7252V18.6306H33.7778H37.1556V26.8874V35.1441H33.7778H30.4V37.0495V38.9549H39.9H49.4V37.0495V35.1441H46.1278H42.8556V24.982V14.8198H36.6278H30.4V16.7252Z" fill="#28CAB8"/>
<path id="Vector_6" d="M53.2 26.8874V38.9549H56.05H58.9V28.7928V18.6306H62.1933C64.03 18.6306 65.6556 18.7153 65.8878 18.8423C66.9011 19.3928 66.9222 19.6892 66.9222 29.6396V38.9549H69.8989H72.8544L72.7911 29.1527C72.6856 17.9955 72.6644 17.7626 71.06 16.1748C69.7933 14.9045 69.1811 14.8198 60.5889 14.8198H53.2V26.8874Z" fill="#28CAB8"/>
<path id="Vector_7" d="M76.4222 16.7252V18.6306H79.8H83.1778V26.8874V35.1441H79.8H76.4222V37.0495V38.9549H85.9222H95.4222V37.0495V35.1441H92.15H88.8778V24.982V14.8198H82.65H76.4222V16.7252Z" fill="#28CAB8"/>
<path id="Vector_8" d="M103.064 15.2221C100.088 16.2383 99.4333 18.3766 99.4333 26.8874C99.4333 33.895 99.8767 36.2874 101.46 37.6847C102.79 38.8491 103.634 38.9549 111.403 38.9549H118.433V37.0707V35.1653L112.628 35.1018L106.822 35.0383L106.294 34.509C105.534 33.7468 105.344 32.2437 105.344 26.9932C105.366 21.3194 105.556 19.7527 106.294 19.1176C106.843 18.6306 106.928 18.6306 112.649 18.6306H118.433V16.7252V14.8198H111.319C104.964 14.841 104.057 14.8833 103.064 15.2221Z" fill="#28CAB8"/>
<path id="Vector_9" d="M122.444 16.7252V18.6306H125.822H129.2V26.8874V35.1441H125.822H122.444V37.0495V38.9549H131.944H141.444V37.0495V35.1441H138.172H134.9V24.982V14.8198H128.672H122.444V16.7252Z" fill="#28CAB8"/>
<path id="Vector_10" d="M145.287 24.9185L145.35 35.0383L145.92 36.245C146.553 37.6 147.524 38.3833 149.044 38.7221C149.593 38.8491 153.14 38.9549 157.447 38.9549H164.878V26.8874V14.8198H161.922H158.967V24.982V35.1441H155.631C151.726 35.1441 151.514 35.0594 151.177 33.4504C151.029 32.773 150.944 29.0892 150.944 23.6058V14.8198H148.094H145.223L145.287 24.9185Z" fill="#28CAB8"/>
<path id="Vector_11" d="M171.844 15.0103C169.227 15.8148 167.939 18.0802 167.96 21.9121C167.96 25.4477 168.931 27.586 170.979 28.6234L172.14 29.2162H176.932C179.571 29.2162 181.893 29.2797 182.083 29.3432C182.696 29.5761 183.033 30.6135 183.033 32.1802C183.033 33.7468 182.696 34.7842 182.083 35.0171C181.893 35.0806 178.79 35.1441 175.201 35.1441H168.678V37.0495V38.9761L176.552 38.9126L184.448 38.8491L185.482 38.2139C188.733 36.1815 189.261 28.7081 186.348 25.7865C185.018 24.4527 184.511 24.3468 179.212 24.3468C174.716 24.3468 174.399 24.3257 173.892 23.9022C172.773 23.0342 172.626 20.1549 173.66 19.1175L174.146 18.6306H180.394H186.622V16.7252V14.8198L179.508 14.841C175.581 14.841 172.14 14.9257 171.844 15.0103Z" fill="#28CAB8"/>
<path id="Vector_12" d="M79.3778 43.4009V46.3649H76.0844C72.3267 46.3649 71.3767 46.5554 70.3844 47.5716C69.2022 48.7572 69.0333 49.7734 69.0333 55.6802C69.0333 61.5869 69.2022 62.6031 70.3844 63.7887C71.4822 64.8896 72.1789 64.9955 78.3011 64.9955H83.8111V52.7162V40.4369H81.5944H79.3778V43.4009ZM79.3778 55.6802V62.0315H77.1822C73.5722 62.0315 73.3822 61.714 73.3611 55.1509C73.3611 50.6838 73.4667 49.964 74.1844 49.4982C74.3111 49.4135 75.5355 49.3288 76.9078 49.3288H79.3778V55.6802Z" fill="#28CAB8"/>
<path id="Vector_13" d="M89.2367 46.6613C88.1811 47.0423 87.7167 47.4869 87.1467 48.6725C86.6822 49.5829 86.6611 49.9428 86.5978 54.8545C86.5133 60.5495 86.6822 62.0739 87.5056 63.3441C88.4767 64.8261 88.7511 64.8896 94.7467 64.9531L100.067 65.0167V63.5347V62.0315H96.0978C93.0578 62.0315 92.0233 61.968 91.7278 61.7351C91.3478 61.4599 91.0522 60.0203 91.01 58.1572L90.9889 57.3739H94.8522C98.4411 57.3739 98.7789 57.3315 99.6444 56.8869C100.383 56.527 100.721 56.1671 101.122 55.3626C101.587 54.4311 101.65 54.0288 101.65 52.0811C101.65 49.6464 101.397 48.6302 100.531 47.5928C99.5811 46.4707 99.0533 46.3649 94.3244 46.3649C91.2633 46.386 89.8067 46.4707 89.2367 46.6613ZM97.1956 49.6676C97.4489 49.9216 97.5333 50.4509 97.5333 51.8905C97.5333 54.6004 97.4911 54.6216 93.8389 54.6216H90.9889L91.01 53.4995C91.0311 51.3824 91.3056 49.9216 91.7278 49.6252C92.34 49.1806 96.7522 49.2018 97.1956 49.6676Z" fill="#28CAB8"/>
<path id="Vector_14" d="M35.6778 73.5698V91.8829H39.1611H42.6444V84.9176V77.9311L48.1967 77.8676L53.7278 77.804L54.72 77.2113C56.4933 76.1739 57.76 74.2473 58.52 71.3892C59.1322 69.0392 59.1322 64.6991 58.4989 62.3491C57.6544 59.1734 56.3033 57.014 54.5089 55.9342L53.5167 55.3626L44.6078 55.2991L35.6778 55.2356V73.5698ZM50.54 60.359C51.8489 61.3964 52.4822 64.0428 52.2922 67.6419C52.1444 70.3941 51.7222 71.7491 50.7722 72.5959L50.0122 73.2522H46.3389H42.6444V66.5833V59.9144H46.3178C49.7167 59.9144 50.0122 59.9567 50.54 60.359Z" fill="#28CAB8"/>
<path id="Vector_15" d="M108.933 62.0315V63.9369H112.206H115.478V76.0045V88.0721H112.206H108.933V89.9775V91.8829H118.539H128.166L128.102 90.0198L128.039 88.1779L124.724 88.1144L121.389 88.0509V74.0991V60.1261H115.161H108.933V62.0315Z" fill="#28CAB8"/>
<path id="Vector_16" d="M65.4444 69.632V71.5585H70.3C73.3822 71.5585 75.3244 71.6432 75.6411 71.7914C76.4011 72.1302 76.6333 72.85 76.6333 74.8401V76.6185L71.63 76.682C67.3656 76.7455 66.5 76.809 65.9511 77.1054C64.3678 77.9734 63.1856 79.7518 62.7 81.9536C62.32 83.6685 62.5311 86.6113 63.1222 88.1567C63.7133 89.7234 65.1911 91.2477 66.4156 91.6288C67.0278 91.7982 69.5189 91.8829 74.9233 91.8829H82.5656L82.5022 81.8689C82.4389 73.0829 82.3756 71.7703 82.0589 70.9658C81.51 69.5685 80.94 68.891 79.8422 68.3405C78.8711 67.8748 78.6811 67.8536 72.1578 67.7901L65.4444 67.7266V69.632ZM76.6333 84.2613V88.0721H72.8122H69.0122L68.59 87.0982C68.2311 86.2937 68.1678 85.7856 68.2311 84.0495C68.2944 82.1865 68.3578 81.9113 68.8011 81.4243C69.54 80.6198 70.2367 80.4928 73.6356 80.4716L76.6333 80.4504V84.2613Z" fill="#28CAB8"/>
<path id="Vector_17" d="M85.7533 77.8464L85.8167 87.9662L86.3867 89.173C87.02 90.5279 87.9911 91.3113 89.5111 91.65C90.06 91.777 93.6067 91.8829 97.9133 91.8829H105.344V79.8153V67.7477H102.389H99.4333V77.9099V88.0721H96.0978C92.1922 88.0721 91.9811 87.9874 91.6433 86.3784C91.4956 85.7009 91.4111 82.0171 91.4111 76.5338V67.7477H88.5611H85.69L85.7533 77.8464Z" fill="#28CAB8"/>
<path id="Vector_18" d="M134.478 69.632V71.5585H139.333C142.416 71.5585 144.358 71.6432 144.674 71.7914C145.434 72.1302 145.667 72.85 145.667 74.8401V76.6185L140.663 76.682C136.399 76.7455 135.533 76.809 134.984 77.1054C133.401 77.9734 132.219 79.7518 131.733 81.9536C131.353 83.6685 131.564 86.6113 132.156 88.1567C132.747 89.7234 134.224 91.2477 135.449 91.6288C136.061 91.7982 138.552 91.8829 143.957 91.8829H151.599L151.536 81.8689C151.472 73.0829 151.409 71.7703 151.092 70.9658C150.543 69.5685 149.973 68.891 148.876 68.3405C147.904 67.8748 147.714 67.8536 141.191 67.7901L134.478 67.7266V69.632ZM145.667 84.2613V88.0721H141.846H138.046L137.623 87.0982C137.264 86.2937 137.201 85.7856 137.264 84.0495C137.328 82.1865 137.391 81.9113 137.834 81.4243C138.573 80.6198 139.27 80.4928 142.669 80.4716L145.667 80.4504V84.2613Z" fill="#28CAB8"/>
</g>
</g>
</g>
</g>
<defs>
<filter id="filter0_d_0_1" x="-51" y="-29" width="1043" height="159" filterUnits="userSpaceOnUse" color-interpolation-filters="sRGB">
<feFlood flood-opacity="0" result="BackgroundImageFix"/>
<feColorMatrix in="SourceAlpha" type="matrix" values="0 0 0 0 0 0 0 0 0 0 0 0 0 0 0 0 0 0 127 0" result="hardAlpha"/>
<feOffset dy="4"/>
<feGaussianBlur stdDeviation="2"/>
<feComposite in2="hardAlpha" operator="out"/>
<feColorMatrix type="matrix" values="0 0 0 0 0 0 0 0 0 0 0 0 0 0 0 0 0 0 0.25 0"/>
<feBlend mode="normal" in2="BackgroundImageFix" result="effect1_dropShadow_0_1"/>
<feBlend mode="normal" in="SourceGraphic" in2="effect1_dropShadow_0_1" result="shape"/>
</filter>
<clipPath id="clip0_0_1">
<rect width="1024" height="2371" fill="white" transform="translate(-47 -29)"/>
</clipPath>
</defs>
</svg>
