<svg width="148" height="147" viewBox="0 0 148 147" fill="none" xmlns="http://www.w3.org/2000/svg">
<path d="M74 146.375C83.6341 146.401 93.1777 144.528 102.078 140.864C110.979 137.2 119.06 131.818 125.853 125.029C127.103 123.787 127.805 122.102 127.805 120.345C127.805 118.589 127.103 116.904 125.853 115.662L83.4267 73.5L125.853 31.3385C127.103 30.0961 127.805 28.4113 127.805 26.6546C127.805 24.8979 127.103 23.2131 125.853 21.9708C117.326 13.4962 106.827 7.24242 95.2863 3.76331C83.7458 0.284203 71.5199 -0.312811 59.6917 2.02515C47.8635 4.36311 36.7981 9.56388 27.4756 17.1668C18.1532 24.7697 10.8615 34.54 6.24638 45.6123C1.6313 56.6846 -0.164672 68.717 1.01754 80.6438C2.19976 92.5706 6.32367 104.024 13.024 113.988C19.7243 123.953 28.7942 132.122 39.4302 137.771C50.0662 143.42 61.9401 146.375 74 146.375ZM74 13.875C87.6165 13.8361 100.835 18.4353 111.453 26.9064L69.2867 68.8161C68.0369 70.0585 67.3348 71.7433 67.3348 73.5C67.3348 75.2567 68.0369 76.9415 69.2867 78.1839L111.453 120.094C103.964 126.036 95.1522 130.109 85.754 131.973C76.3559 133.836 66.6453 133.435 57.4351 130.803C48.2249 128.172 39.783 123.386 32.816 116.847C25.849 110.308 20.5596 102.205 17.3905 93.2173C14.2213 84.2296 13.2647 74.6183 14.6007 65.1879C15.9367 55.7574 19.5264 46.7821 25.0694 39.0133C30.6123 31.2445 37.9473 24.9081 46.4603 20.5345C54.9733 16.1609 64.4166 13.8774 74 13.875ZM147.333 73.5C147.333 76.1206 146.551 78.6824 145.086 80.8613C143.621 83.0403 141.539 84.7386 139.102 85.7414C136.666 86.7443 133.985 87.0067 131.399 86.4954C128.812 85.9842 126.437 84.7222 124.572 82.8692C122.707 81.0161 121.437 78.6552 120.923 76.085C120.408 73.5147 120.672 70.8506 121.682 68.4295C122.691 66.0083 124.4 63.939 126.592 62.483C128.785 61.0271 131.363 60.25 134 60.25C137.536 60.25 140.928 61.646 143.428 64.1308C145.929 66.6157 147.333 69.9859 147.333 73.5ZM47.3333 40.375C47.3333 37.7544 48.1153 35.1927 49.5804 33.0137C51.0455 30.8347 53.1279 29.1365 55.5642 28.1336C58.0006 27.1307 60.6815 26.8683 63.2679 27.3796C65.8543 27.8909 68.2301 29.1528 70.0948 31.0058C71.9595 32.8589 73.2293 35.2198 73.7438 37.7901C74.2583 40.3603 73.9942 43.0244 72.9851 45.4456C71.9759 47.8667 70.2669 49.9361 68.0743 51.392C65.8816 52.8479 63.3038 53.625 60.6667 53.625C57.1305 53.625 53.7391 52.229 51.2386 49.7442C48.7381 47.2593 47.3333 43.8891 47.3333 40.375Z" fill="#28CAB8"/>
</svg>
