<svg width="177" height="177" viewBox="0 0 177 177" fill="none" xmlns="http://www.w3.org/2000/svg">
<path d="M150.118 16.5938H26.8819C22.6863 16.5938 18.6626 18.2604 15.6959 21.2271C12.7292 24.1938 11.0625 28.2176 11.0625 32.4131V44.25C11.0625 45.717 11.6453 47.1239 12.6826 48.1612C13.7199 49.1985 15.1268 49.7812 16.5938 49.7812C18.0607 49.7812 19.4676 49.1985 20.5049 48.1612C21.5422 47.1239 22.125 45.717 22.125 44.25V32.4131C22.1394 31.156 22.6452 29.9544 23.5341 29.0654C24.4231 28.1764 25.6247 27.6706 26.8819 27.6562H150.118C151.375 27.6706 152.577 28.1764 153.466 29.0654C154.355 29.9544 154.861 31.156 154.875 32.4131V116.931C154.861 118.188 154.355 119.389 153.466 120.278C152.577 121.167 151.375 121.673 150.118 121.688H26.8819C25.6247 121.673 24.4231 121.167 23.5341 120.278C22.6452 119.389 22.1394 118.188 22.125 116.931V110.625H138.281C139.748 110.625 141.155 110.042 142.192 109.005C143.23 107.968 143.812 106.561 143.812 105.094C143.812 103.627 143.23 102.22 142.192 101.183C141.155 100.145 139.748 99.5625 138.281 99.5625H22.125V66.375C22.125 64.908 21.5422 63.5011 20.5049 62.4638C19.4676 61.4265 18.0607 60.8438 16.5938 60.8438C15.1268 60.8438 13.7199 61.4265 12.6826 62.4638C11.6453 63.5011 11.0625 64.908 11.0625 66.375V116.931C11.0625 119.008 11.4717 121.065 12.2667 122.984C13.0617 124.904 14.2269 126.648 15.6959 128.117C17.1649 129.586 18.9088 130.751 20.8281 131.546C22.7474 132.341 24.8044 132.75 26.8819 132.75H66.8175C67.0305 136.149 66.8822 139.56 66.375 142.927C65.7461 147.046 64.5743 151.064 62.8903 154.875H55.3125C53.8455 154.875 52.4386 155.458 51.4013 156.495C50.364 157.532 49.7812 158.939 49.7812 160.406C49.7812 161.873 50.364 163.28 51.4013 164.317C52.4386 165.355 53.8455 165.938 55.3125 165.938H121.688C123.154 165.938 124.561 165.355 125.599 164.317C126.636 163.28 127.219 161.873 127.219 160.406C127.219 158.939 126.636 157.532 125.599 156.495C124.561 155.458 123.154 154.875 121.688 154.875H114.11C112.426 151.064 111.254 147.046 110.625 142.927C110.118 139.56 109.969 136.149 110.183 132.75H150.118C152.196 132.75 154.253 132.341 156.172 131.546C158.091 130.751 159.835 129.586 161.304 128.117C162.773 126.648 163.938 124.904 164.733 122.984C165.528 121.065 165.938 119.008 165.938 116.931V32.4131C165.938 28.2176 164.271 24.1938 161.304 21.2271C158.337 18.2604 154.314 16.5938 150.118 16.5938ZM99.5625 144.697C100.14 148.163 101.029 151.569 102.217 154.875H74.5612C75.8255 151.576 76.7882 148.17 77.4375 144.697C78.0256 140.744 78.2294 136.743 78.0459 132.75H98.9541C98.7706 136.743 98.9744 140.744 99.5625 144.697Z" fill="#28CAB8"/>
<path d="M62.2265 86.6194C62.7449 87.2094 63.3829 87.6822 64.0982 88.0065C64.8135 88.3308 65.5896 88.499 66.375 88.5C67.7195 88.498 69.0172 88.0065 70.0256 87.1172L114.276 48.3984C114.857 47.93 115.338 47.3488 115.689 46.6897C116.039 46.0306 116.253 45.3072 116.317 44.5633C116.381 43.8193 116.293 43.0702 116.06 42.361C115.826 41.6517 115.452 40.9971 114.958 40.4366C114.465 39.8761 113.863 39.4212 113.19 39.0994C112.516 38.7776 111.784 38.5956 111.038 38.5643C110.292 38.533 109.547 38.6531 108.849 38.9173C108.151 39.1814 107.513 39.5843 106.974 40.1015L62.7244 78.8203C61.6254 79.7893 60.9557 81.1547 60.8624 82.6169C60.769 84.079 61.2597 85.5185 62.2265 86.6194Z" fill="#28CAB8"/>
<path d="M71.9063 44.25C71.9063 42.783 71.3235 41.3761 70.2862 40.3388C69.2489 39.3015 67.842 38.7188 66.375 38.7188C65.281 38.7188 64.2116 39.0432 63.302 39.6509C62.3924 40.2587 61.6834 41.1226 61.2648 42.1333C60.8461 43.144 60.7366 44.2561 60.95 45.3291C61.1635 46.4021 61.6903 47.3876 62.4638 48.1612C63.2374 48.9347 64.223 49.4615 65.2959 49.675C66.3689 49.8884 67.481 49.7789 68.4917 49.3602C69.5024 48.9416 70.3663 48.2326 70.9741 47.323C71.5819 46.4134 71.9063 45.344 71.9063 44.25Z" fill="#28CAB8"/>
<path d="M110.625 77.4375C109.531 77.4375 108.462 77.7619 107.552 78.3697C106.642 78.9775 105.933 79.8413 105.515 80.852C105.096 81.8627 104.987 82.9749 105.2 84.0478C105.413 85.1208 105.94 86.1064 106.714 86.8799C107.487 87.6535 108.473 88.1803 109.546 88.3937C110.619 88.6071 111.731 88.4976 112.742 88.079C113.752 87.6603 114.616 86.9514 115.224 86.0417C115.832 85.1321 116.156 84.0627 116.156 82.9688C116.156 81.5018 115.574 80.0949 114.536 79.0576C113.499 78.0203 112.092 77.4375 110.625 77.4375Z" fill="#28CAB8"/>
</svg>
