<svg width="120" height="119" viewBox="0 0 120 119" fill="none" xmlns="http://www.w3.org/2000/svg">
<g id="reshot-icon-tool-U7L6BXMTRG-86584 1" clip-path="url(#clip0_10_14)">
<path id="Vector" d="M64.7649 11.0445C59.2148 5.51713 52.0812 1.84187 44.3475 0.525386C36.6137 -0.791098 28.6606 0.31603 21.5847 3.69414L42.3802 24.4108C44.7532 26.7753 46.0866 29.9825 46.0871 33.3269C46.0876 36.6714 44.7552 39.879 42.3829 42.2442C40.0106 44.6095 36.7929 45.9385 33.4375 45.939C30.0821 45.9395 26.8639 44.6115 24.4909 42.247L3.69544 21.5249C0.410209 28.3766 -0.727989 36.0558 0.429199 43.5616C1.58639 51.0674 4.98529 58.0517 10.1829 63.6041C15.3805 69.1565 22.1357 73.0194 29.568 74.6894C37.0003 76.3595 44.765 75.7591 51.85 72.9666L98.0344 119L120 97.1008L73.5217 50.7745C76.0154 44.0092 76.516 36.6743 74.9644 29.6348C73.4128 22.5954 69.8738 16.145 64.7649 11.0445Z" fill="#28CAB8"/>
</g>
<defs>
<clipPath id="clip0_10_14">
<rect width="120" height="119" fill="white"/>
</clipPath>
</defs>
</svg>
